<svg width="207" height="93" viewBox="0 0 207 93" fill="none" xmlns="http://www.w3.org/2000/svg">
<path d="M108.1 88.6001L120 73.3C120.1 73.2 120.1 73.0001 120.1 72.9001L109.6 0.5C109.6 0.2 109.3 0 109 0H95.2998C95.0998 0 94.8998 0.100049 94.7998 0.300049L62.0999 66.9001C61.8999 67.3001 61.2999 67.3001 61.0999 66.9001L28.0999 0.300049C27.9999 0.100049 27.7999 0 27.5999 0H13.7998C13.4998 0 13.2999 0.2 13.1999 0.5L-0.000150058 91.4001C-0.10015 91.7001 0.199856 92 0.599856 92H16.5999C16.8999 92 17.0999 91.8 17.1999 91.5L25.1999 33.2002C25.2999 32.6002 25.9998 32.5 26.2998 33L55.3998 91.7002C55.4998 91.9002 55.6998 92 55.8998 92H67.1999C67.3999 92 67.5999 91.9002 67.6999 91.7002L96.3998 33.8C96.6998 33.3 97.3998 33.4 97.4998 34L105.3 90.5C105.4 91 106 91.2 106.3 90.8L108.1 88.6001Z" fill="white"/>
<path d="M205.5 0H185.4C185.2 0 185.1 0.100195 184.9 0.200195L160.8 31.8C160.6 32.1 160.1 32.1 159.9 31.8L135.7 0.200195C135.6 0.100195 135.4 0 135.2 0H115.1C114.6 0 114.4 0.600146 114.6 0.900146L149.2 45.7002C149.4 45.9002 149.4 46.2001 149.2 46.4001L114.6 91.2002C114.3 91.6002 114.6 92.1001 115.1 92.1001H135.2C135.4 92.1001 135.5 92.0001 135.7 91.9001L159.9 60.3C160.1 60 160.6 60 160.8 60.3L185 91.9001C185.1 92.0001 185.3 92.1001 185.5 92.1001H205.6C206.1 92.1001 206.3 91.5002 206.1 91.2002L171.5 46.4001C171.3 46.2001 171.3 45.9002 171.5 45.7002L206.1 0.900146C206.2 0.500146 206 0 205.5 0Z" fill="white"/>
</svg>
